<svg width="1028" height="632" viewBox="0 0 1028 632" fill="none" xmlns="http://www.w3.org/2000/svg">
<g clip-path="url(#clip0_2001_23)">
<path d="M683.472 176.363L514 120.192L344.528 176.363C331.759 180.596 320.649 188.744 312.775 199.651C304.902 210.558 300.665 223.668 300.667 237.12V376C300.667 536.512 496.933 625.152 505.339 628.843L512.891 632.192L520.741 629.589C529.189 626.773 727.333 558.976 727.333 376V237.12C727.335 223.668 723.098 210.558 715.224 199.651C707.351 188.744 696.241 180.596 683.472 176.363ZM599.333 397.333H535.333V461.333H492.667V397.333H428.667V354.667H492.667V290.667H535.333V354.667H599.333V397.333Z" fill="black"/>
</g>
<path d="M1027.5 0.5L668.5 212.5V274.5C735.167 265.333 884.6 235.5 949 189.5C1013.4 143.5 1028.17 44.3333 1027.5 0.5Z" fill="black"/>
<path d="M976.653 213.946L678.644 314.213L669 359.898C719.643 363.532 834.604 364.837 889.303 340.978C944.001 317.118 970.327 246.348 976.653 213.946Z" fill="black"/>
<path d="M876.491 375.894L685.22 393.108L673 418.875C702.566 428.23 770.67 445.341 806.552 438.941C842.435 432.541 868.129 394.243 876.491 375.894Z" fill="black"/>
<path d="M1027.5 0.5L668.5 212.5V274.5C735.167 265.333 884.6 235.5 949 189.5C1013.4 143.5 1028.17 44.3333 1027.5 0.5Z" fill="black"/>
<path d="M976.653 213.946L678.644 314.213L669 359.898C719.643 363.532 834.604 364.837 889.303 340.978C944.001 317.118 970.327 246.348 976.653 213.946Z" fill="black"/>
<path d="M876.491 375.894L685.22 393.108L673 418.875C702.566 428.23 770.67 445.341 806.552 438.941C842.435 432.541 868.129 394.243 876.491 375.894Z" fill="black"/>
<path d="M0.0212708 0L359.021 212V274C292.355 264.833 142.921 235 78.5213 189C14.1213 143 -0.645386 43.8333 0.0212708 0Z" fill="black"/>
<path d="M50.8681 213.446L348.878 313.713L358.521 359.398C307.878 363.032 192.917 364.337 138.219 340.478C83.5199 316.618 57.1938 245.848 50.8681 213.446Z" fill="black"/>
<path d="M151.03 375.394L342.301 392.608L354.521 418.375C324.955 427.73 256.852 444.841 220.969 438.441C185.087 432.041 159.392 393.743 151.03 375.394Z" fill="black"/>
<defs>
<clipPath id="clip0_2001_23">
<rect width="512" height="512" fill="white" transform="translate(258 120)"/>
</clipPath>
</defs>
</svg>
